<svg xmlns="http://www.w3.org/2000/svg" xmlns:lucid="lucid" width="393.58" height="340"><g lucid:page-tab-id="0_0"><path d="M-883.2-438.67H987.64V884.17H-883.2z" fill="#fff"/><path d="M179.7 153.96h44.1M179.7 161.96h44.1M189.95 147.78l-17.22 10.18 17.22 10.18M223.75 153.96h2.05M223.75 161.96h2.05M167.48 178.04h47.4M167.48 186.04h47.4M167.53 178.04h-2.05M167.53 186.04h-2.05M204.66 192.22l17.2-10.18-17.2-10.18" stroke="#5e5e5e" stroke-width="4" fill="none"/><path d="M20 40c0-11.05 8.95-20 20-20h105.48c11.05 0 20 8.95 20 20v260c0 11.05-8.95 20-20 20H40c-11.05 0-20-8.95-20-20z" stroke="#5e5e5e" stroke-width="3" fill-opacity="0"/><path d="M42.67 37.9h99.95v101.4H42.67z" stroke="#5e5e5e" stroke-width="3" fill-opacity="0"/><path d="M42.67 66.58h57.1v28.68h-57.1z" fill="none"/><path d="M42.67 80.92c0-7.92 6.4-14.34 14.28-14.34 7.9 0 14.28 6.42 14.28 14.34m0 0c0 7.92 6.4 14.34 14.28 14.34 7.9 0 14.28-6.42 14.28-14.34" stroke="#5e5e5e" stroke-width="3" fill="none"/><path d="M56.95 52.24h57.1v28.68h-57.1z" fill="none"/><path d="M56.95 66.58c0-7.92 6.4-14.34 14.28-14.34 7.88 0 14.28 6.42 14.28 14.34m0 0c0 7.92 6.4 14.34 14.28 14.34 7.9 0 14.28-6.42 14.28-14.34" stroke="#5e5e5e" stroke-width="3" fill="none"/><path d="M85.5 52.24h57.12v28.68h-57.1z" fill="none"/><path d="M85.5 66.58c0-7.92 6.4-14.34 14.28-14.34 7.9 0 14.28 6.42 14.28 14.34m0 0c0 7.92 6.4 14.34 14.28 14.34 7.88 0 14.28-6.42 14.28-14.34" stroke="#5e5e5e" stroke-width="3" fill="none"/><path d="M56.95 80.92h57.1v28.7h-57.1z" fill="none"/><path d="M56.95 95.26c0-7.92 6.4-14.34 14.28-14.34 7.88 0 14.28 6.42 14.28 14.34m0 0c0 7.93 6.4 14.35 14.28 14.35 7.9 0 14.28-6.4 14.28-14.34" stroke="#5e5e5e" stroke-width="3" fill="none"/><path d="M71.23 95.26h57.1v28.7h-57.1z" fill="none"/><path d="M71.23 109.6c0-7.9 6.4-14.34 14.28-14.34 7.9 0 14.28 6.43 14.28 14.35m0 0c0 7.93 6.4 14.35 14.28 14.35 7.9 0 14.28-6.42 14.28-14.34" stroke="#5e5e5e" stroke-width="3" fill="none"/><path d="M85.5 66.58h57.12v28.68h-57.1z" fill="none"/><path d="M85.5 80.92c0-7.92 6.4-14.34 14.28-14.34 7.9 0 14.28 6.42 14.28 14.34m0 0c0 7.92 6.4 14.34 14.28 14.34 7.88 0 14.28-6.42 14.28-14.34" stroke="#5e5e5e" stroke-width="3" fill="none"/><g fill="none"><path d="M128.34 67.6v57.37H99.78V67.6z"/><path d="M114.06 67.6c7.9 0 14.28 6.42 14.28 14.34s-6.4 14.34-14.28 14.34m0 0c-7.88 0-14.28 6.42-14.28 14.34 0 7.93 6.4 14.35 14.28 14.35" stroke="#5e5e5e" stroke-width="3"/></g><g fill="none"><path d="M71.23 37.9v57.36H42.67V37.9z"/><path d="M56.95 37.9c7.9 0 14.28 6.4 14.28 14.34 0 7.92-6.4 14.34-14.28 14.34m0 0c-7.88 0-14.28 6.42-14.28 14.34s6.4 14.34 14.28 14.34" stroke="#5e5e5e" stroke-width="3"/></g><g fill="none"><path d="M99.78 37.9v57.36H71.23V37.9z"/><path d="M85.5 37.9c7.9 0 14.28 6.4 14.28 14.34 0 7.92-6.4 14.34-14.27 14.34m0 0c-7.88 0-14.27 6.42-14.27 14.34s6.4 14.34 14.28 14.34" stroke="#5e5e5e" stroke-width="3"/></g><g fill="none"><path d="M85.5 66.58v57.37H56.96V66.58z"/><path d="M71.23 66.58c7.88 0 14.28 6.42 14.28 14.34s-6.4 14.34-14.27 14.34m0 0c-7.9 0-14.28 6.43-14.28 14.35 0 7.93 6.4 14.35 14.28 14.35" stroke="#5e5e5e" stroke-width="3"/></g><g fill="none"><path d="M71.23 60.42v57.38H42.67V60.42z"/><path d="M56.95 60.42c7.9 0 14.28 6.42 14.28 14.35 0 7.92-6.4 14.34-14.28 14.34m0 0c-7.88 0-14.28 6.43-14.28 14.35s6.4 14.35 14.28 14.35" stroke="#5e5e5e" stroke-width="3"/></g><g fill="none"><path d="M128.34 37.9v57.36H99.78V37.9z"/><path d="M114.06 37.9c7.9 0 14.28 6.4 14.28 14.34 0 7.92-6.4 14.34-14.28 14.34m0 0c-7.88 0-14.28 6.42-14.28 14.34s6.4 14.34 14.28 14.34" stroke="#5e5e5e" stroke-width="3"/></g><g fill="none"><path d="M99.78 67.6v57.37H71.23V67.6z"/><path d="M85.5 67.6c7.9 0 14.28 6.42 14.28 14.34s-6.4 14.34-14.27 14.34m0 0c-7.88 0-14.27 6.42-14.27 14.34 0 7.93 6.4 14.35 14.28 14.35" stroke="#5e5e5e" stroke-width="3"/></g><g fill="none"><path d="M142.62 66.58v57.37h-28.56V66.58z"/><path d="M128.34 66.58c7.88 0 14.28 6.42 14.28 14.34s-6.4 14.34-14.28 14.34m0 0c-7.9 0-14.28 6.43-14.28 14.35 0 7.93 6.4 14.35 14.28 14.35" stroke="#5e5e5e" stroke-width="3"/></g><path d="M71.23 37.9h57.1v28.68h-57.1z" fill="none"/><path d="M71.23 52.24c0-7.93 6.4-14.35 14.28-14.35 7.9 0 14.28 6.4 14.28 14.34m0 0c0 7.92 6.4 14.34 14.28 14.34 7.9 0 14.28-6.42 14.28-14.34" stroke="#5e5e5e" stroke-width="3" fill="none"/><path d="M42.67 89.1h57.1v28.7h-57.1z" fill="none"/><path d="M42.67 103.45c0-7.92 6.4-14.34 14.28-14.34 7.9 0 14.28 6.43 14.28 14.35m0 0c0 7.92 6.4 14.35 14.28 14.35 7.9 0 14.28-6.43 14.28-14.35" stroke="#5e5e5e" stroke-width="3" fill="none"/><path d="M56.95 109.63l10.12 10.12-10.12 10.12-10.12-10.12z" stroke="#5e5e5e" stroke-width="3"/><path d="M67.05 117.82l10.12 10.12-10.12 10.12-10.12-10.12zM87.24 110.65l10.12 10.12-10.12 10.1-10.12-10.1zM103.97 118.03l10.12 10.12-10.13 10.12-10.12-10.12z" stroke="#5e5e5e" stroke-width="3"/><path d="M109.88 104.7L120 114.83l-10.12 10.12-10.12-10.12zM124.16 118.03l10.12 10.12-10.12 10.12-10.12-10.12zM132.52 104.7l10.12 10.12-10.12 10.12-10.12-10.12z" stroke="#5e5e5e" stroke-width="3"/><path d="M42.65 197.9h99.94v101.4H42.64z" stroke="#5e5e5e" stroke-width="3" fill-opacity="0"/><path d="M42.65 226.58h57.1v28.68h-57.1z" fill="none"/><path d="M42.65 240.92c0-7.92 6.4-14.34 14.28-14.34 7.88 0 14.28 6.42 14.28 14.34m0 0c0 7.92 6.4 14.34 14.28 14.34 7.9 0 14.28-6.42 14.28-14.34" stroke="#5e5e5e" stroke-width="3" fill="none"/><path d="M56.93 212.24h57.1v28.68h-57.1z" fill="none"/><path d="M56.93 226.58c0-7.92 6.4-14.34 14.28-14.34 7.9 0 14.28 6.42 14.28 14.34m0 0c0 7.92 6.4 14.34 14.28 14.34 7.9 0 14.28-6.42 14.28-14.34" stroke="#5e5e5e" stroke-width="3" fill="none"/><path d="M85.48 212.24h57.1v28.68H85.5z" fill="none"/><path d="M85.48 226.58c0-7.92 6.4-14.34 14.28-14.34 7.9 0 14.28 6.42 14.28 14.34m0 0c0 7.92 6.4 14.34 14.28 14.34 7.88 0 14.27-6.42 14.27-14.34" stroke="#5e5e5e" stroke-width="3" fill="none"/><path d="M56.93 240.92h57.1v28.7h-57.1z" fill="none"/><path d="M56.93 255.26c0-7.92 6.4-14.34 14.28-14.34 7.9 0 14.28 6.42 14.28 14.34m0 0c0 7.93 6.4 14.35 14.28 14.35 7.9 0 14.28-6.4 14.28-14.34" stroke="#5e5e5e" stroke-width="3" fill="none"/><path d="M71.2 255.26h57.12v28.7h-57.1z" fill="none"/><path d="M71.2 269.6c0-7.9 6.4-14.34 14.28-14.34 7.9 0 14.28 6.43 14.28 14.35m0 0c0 7.93 6.4 14.35 14.28 14.35 7.88 0 14.28-6.42 14.28-14.34" stroke="#5e5e5e" stroke-width="3" fill="none"/><path d="M85.48 226.58h57.1v28.68H85.5z" fill="none"/><path d="M85.48 240.92c0-7.92 6.4-14.34 14.28-14.34 7.9 0 14.28 6.42 14.28 14.34m0 0c0 7.92 6.4 14.34 14.28 14.34 7.88 0 14.27-6.42 14.27-14.34" stroke="#5e5e5e" stroke-width="3" fill="none"/><g fill="none"><path d="M128.32 227.6v57.37H99.76V227.6z"/><path d="M114.04 227.6c7.88 0 14.28 6.42 14.28 14.34s-6.4 14.34-14.28 14.34m0 0c-7.9 0-14.28 6.42-14.28 14.34 0 7.93 6.4 14.35 14.28 14.35" stroke="#5e5e5e" stroke-width="3"/></g><g fill="none"><path d="M71.2 197.9v57.36H42.66V197.9z"/><path d="M56.93 197.9c7.88 0 14.28 6.4 14.28 14.34 0 7.92-6.4 14.34-14.27 14.34m0 0c-7.9 0-14.28 6.42-14.28 14.34s6.4 14.34 14.28 14.34" stroke="#5e5e5e" stroke-width="3"/></g><g fill="none"><path d="M99.76 197.9v57.36H71.2V197.9z"/><path d="M85.48 197.9c7.9 0 14.28 6.4 14.28 14.34 0 7.92-6.4 14.34-14.28 14.34m0 0c-7.88 0-14.27 6.42-14.27 14.34s6.4 14.34 14.28 14.34" stroke="#5e5e5e" stroke-width="3"/></g><g fill="none"><path d="M85.48 226.58v57.37H56.93v-57.37z"/><path d="M71.2 226.58c7.9 0 14.28 6.42 14.28 14.34s-6.4 14.34-14.27 14.34m0 0c-7.88 0-14.27 6.43-14.27 14.35 0 7.93 6.4 14.35 14.28 14.35" stroke="#5e5e5e" stroke-width="3"/></g><g fill="none"><path d="M71.2 220.42v57.38H42.66v-57.38z"/><path d="M56.93 220.42c7.88 0 14.28 6.42 14.28 14.35 0 7.92-6.4 14.34-14.27 14.34m0 0c-7.9 0-14.28 6.43-14.28 14.35s6.4 14.35 14.28 14.35" stroke="#5e5e5e" stroke-width="3"/></g><g fill="none"><path d="M128.32 197.9v57.36H99.76V197.9z"/><path d="M114.04 197.9c7.88 0 14.28 6.4 14.28 14.34 0 7.92-6.4 14.34-14.28 14.34m0 0c-7.9 0-14.28 6.42-14.28 14.34s6.4 14.34 14.28 14.34" stroke="#5e5e5e" stroke-width="3"/></g><g fill="none"><path d="M99.76 227.6v57.37H71.2V227.6z"/><path d="M85.48 227.6c7.9 0 14.28 6.42 14.28 14.34s-6.4 14.34-14.28 14.34m0 0c-7.88 0-14.27 6.42-14.27 14.34 0 7.93 6.4 14.35 14.28 14.35" stroke="#5e5e5e" stroke-width="3"/></g><g fill="none"><path d="M142.6 226.58v57.37h-28.56v-57.37z"/><path d="M128.32 226.58c7.88 0 14.27 6.42 14.27 14.34s-6.4 14.34-14.28 14.34m0 0c-7.9 0-14.28 6.43-14.28 14.35 0 7.93 6.4 14.35 14.28 14.35" stroke="#5e5e5e" stroke-width="3"/></g><path d="M71.2 197.9h57.12v28.68h-57.1z" fill="none"/><path d="M71.2 212.24c0-7.93 6.4-14.35 14.28-14.35 7.9 0 14.28 6.4 14.28 14.34m0 0c0 7.92 6.4 14.34 14.28 14.34 7.88 0 14.28-6.42 14.28-14.34" stroke="#5e5e5e" stroke-width="3" fill="none"/><path d="M42.65 249.1h57.1v28.7h-57.1z" fill="none"/><path d="M42.65 263.45c0-7.92 6.4-14.34 14.28-14.34 7.88 0 14.28 6.43 14.28 14.35m0 0c0 7.92 6.4 14.35 14.28 14.35 7.9 0 14.28-6.43 14.28-14.35" stroke="#5e5e5e" stroke-width="3" fill="none"/><path d="M56.93 269.63l10.12 10.12-10.12 10.12-10.12-10.12z" stroke="#5e5e5e" stroke-width="3"/><path d="M67.02 277.82l10.12 10.12-10.12 10.12-10.1-10.12zM87.22 270.65l10.1 10.12-10.1 10.1-10.12-10.1zM103.94 278.03l10.12 10.12-10.12 10.12-10.12-10.12z" stroke="#5e5e5e" stroke-width="3"/><path d="M109.86 264.7l10.12 10.12-10.12 10.12-10.12-10.12zM124.13 278.03l10.12 10.12-10.12 10.12-10.1-10.12zM132.5 264.7l10.12 10.12-10.12 10.12-10.12-10.12z" stroke="#5e5e5e" stroke-width="3"/><path d="M92.65 161.43v14.34" stroke="#5e5e5e" stroke-width="3" fill="none"/><path d="M92.65 145.66l4.63 14.27H88zM92.65 191.54L88 177.27h9.28z" stroke="#5e5e5e" stroke-width="3" fill="#5e5e5e"/><path d="M228.1 40c0-11.05 8.95-20 20-20h105.48c11.04 0 20 8.95 20 20v260c0 11.05-8.96 20-20 20h-105.5c-11.03 0-20-8.95-20-20z" stroke="#5e5e5e" stroke-width="3" fill-opacity="0"/><path d="M250.77 37.9h99.94v101.4h-99.93z" stroke="#5e5e5e" stroke-width="3" fill-opacity="0"/><path d="M250.77 66.58h57.1v28.68h-57.1z" fill="none"/><path d="M250.77 80.92c0-7.92 6.4-14.34 14.27-14.34 7.9 0 14.28 6.42 14.28 14.34m0 0c0 7.92 6.4 14.34 14.28 14.34 7.9 0 14.28-6.42 14.28-14.34" stroke="#5e5e5e" stroke-width="3" fill="none"/><path d="M265.04 52.24h57.12v28.68h-57.12z" fill="none"/><path d="M265.04 66.58c0-7.92 6.4-14.34 14.28-14.34 7.9 0 14.28 6.42 14.28 14.34m0 0c0 7.92 6.4 14.34 14.28 14.34 7.88 0 14.28-6.42 14.28-14.34" stroke="#5e5e5e" stroke-width="3" fill="none"/><path d="M293.6 52.24h57.1v28.68h-57.1z" fill="none"/><path d="M293.6 66.58c0-7.92 6.4-14.34 14.28-14.34 7.88 0 14.28 6.42 14.28 14.34m0 0c0 7.92 6.4 14.34 14.27 14.34 7.9 0 14.28-6.42 14.28-14.34" stroke="#5e5e5e" stroke-width="3" fill="none"/><path d="M265.04 80.92h57.12v28.7h-57.12z" fill="none"/><path d="M265.04 95.26c0-7.92 6.4-14.34 14.28-14.34 7.9 0 14.28 6.42 14.28 14.34m0 0c0 7.93 6.4 14.35 14.28 14.35 7.88 0 14.28-6.4 14.28-14.34" stroke="#5e5e5e" stroke-width="3" fill="none"/><path d="M279.32 95.26h57.1v28.7h-57.1z" fill="none"/><path d="M279.32 109.6c0-7.9 6.4-14.34 14.28-14.34 7.9 0 14.28 6.43 14.28 14.35m0 0c0 7.93 6.4 14.35 14.28 14.35 7.88 0 14.27-6.42 14.27-14.34" stroke="#5e5e5e" stroke-width="3" fill="none"/><path d="M293.6 66.58h57.1v28.68h-57.1z" fill="none"/><path d="M293.6 80.92c0-7.92 6.4-14.34 14.28-14.34 7.88 0 14.28 6.42 14.28 14.34m0 0c0 7.92 6.4 14.34 14.27 14.34 7.9 0 14.28-6.42 14.28-14.34" stroke="#5e5e5e" stroke-width="3" fill="none"/><g fill="none"><path d="M336.43 67.6v57.37h-28.55V67.6z"/><path d="M322.16 67.6c7.88 0 14.27 6.42 14.27 14.34s-6.4 14.34-14.27 14.34m0 0c-7.9 0-14.28 6.42-14.28 14.34 0 7.93 6.4 14.35 14.28 14.35" stroke="#5e5e5e" stroke-width="3"/></g><g fill="none"><path d="M279.32 37.9v57.36h-28.55V37.9z"/><path d="M265.04 37.9c7.9 0 14.28 6.4 14.28 14.34 0 7.92-6.4 14.34-14.28 14.34m0 0c-7.88 0-14.27 6.42-14.27 14.34s6.4 14.34 14.27 14.34" stroke="#5e5e5e" stroke-width="3"/></g><g fill="none"><path d="M307.88 37.9v57.36h-28.56V37.9z"/><path d="M293.6 37.9c7.9 0 14.28 6.4 14.28 14.34 0 7.92-6.4 14.34-14.28 14.34m0 0c-7.9 0-14.28 6.42-14.28 14.34s6.4 14.34 14.28 14.34" stroke="#5e5e5e" stroke-width="3"/></g><g fill="none"><path d="M293.6 66.58v57.37h-28.56V66.58z"/><path d="M279.32 66.58c7.9 0 14.28 6.42 14.28 14.34s-6.4 14.34-14.28 14.34m0 0c-7.88 0-14.28 6.43-14.28 14.35 0 7.93 6.4 14.35 14.28 14.35" stroke="#5e5e5e" stroke-width="3"/></g><g fill="none"><path d="M279.32 60.42v57.38h-28.55V60.42z"/><path d="M265.04 60.42c7.9 0 14.28 6.42 14.28 14.35 0 7.92-6.4 14.34-14.28 14.34m0 0c-7.88 0-14.27 6.43-14.27 14.35s6.4 14.35 14.27 14.35" stroke="#5e5e5e" stroke-width="3"/></g><g fill="none"><path d="M336.43 37.9v57.36h-28.55V37.9z"/><path d="M322.16 37.9c7.88 0 14.27 6.4 14.27 14.34 0 7.92-6.4 14.34-14.27 14.34m0 0c-7.9 0-14.28 6.42-14.28 14.34s6.4 14.34 14.28 14.34" stroke="#5e5e5e" stroke-width="3"/></g><g fill="none"><path d="M307.88 67.6v57.37h-28.56V67.6z"/><path d="M293.6 67.6c7.9 0 14.28 6.42 14.28 14.34s-6.4 14.34-14.28 14.34m0 0c-7.9 0-14.28 6.42-14.28 14.34 0 7.93 6.4 14.35 14.28 14.35" stroke="#5e5e5e" stroke-width="3"/></g><g fill="none"><path d="M350.7 66.58v57.37h-28.54V66.58z"/><path d="M336.43 66.58c7.9 0 14.28 6.42 14.28 14.34s-6.38 14.34-14.27 14.34m0 0c-7.88 0-14.27 6.43-14.27 14.35 0 7.93 6.4 14.35 14.27 14.35" stroke="#5e5e5e" stroke-width="3"/></g><path d="M279.32 37.9h57.1v28.68h-57.1z" fill="none"/><path d="M279.32 52.24c0-7.93 6.4-14.35 14.28-14.35 7.9 0 14.28 6.4 14.28 14.34m0 0c0 7.92 6.4 14.34 14.28 14.34 7.88 0 14.27-6.42 14.27-14.34" stroke="#5e5e5e" stroke-width="3" fill="none"/><path d="M250.77 89.1h57.1v28.7h-57.1z" fill="none"/><path d="M250.77 103.45c0-7.92 6.4-14.34 14.27-14.34 7.9 0 14.28 6.43 14.28 14.35m0 0c0 7.92 6.4 14.35 14.28 14.35 7.9 0 14.28-6.43 14.28-14.35" stroke="#5e5e5e" stroke-width="3" fill="none"/><path d="M265.04 109.63l10.12 10.12-10.12 10.12-10.1-10.12z" stroke="#5e5e5e" stroke-width="3"/><path d="M275.14 117.82l10.12 10.12-10.12 10.12-10.12-10.12zM295.33 110.65l10.12 10.12-10.12 10.1-10.12-10.1zM312.06 118.03l10.12 10.12-10.12 10.12-10.12-10.12z" stroke="#5e5e5e" stroke-width="3"/><path d="M317.97 104.7l10.12 10.12-10.13 10.12-10.12-10.12zM332.25 118.03l10.12 10.12-10.12 10.12-10.12-10.12zM340.6 104.7l10.13 10.12-10.12 10.12-10.1-10.12z" stroke="#5e5e5e" stroke-width="3"/><path d="M250.74 197.9h99.95v101.4h-99.96z" stroke="#5e5e5e" stroke-width="3" fill-opacity="0"/><path d="M250.74 226.58h57.1v28.68h-57.1z" fill="none"/><path d="M250.74 240.92c0-7.92 6.4-14.34 14.28-14.34 7.9 0 14.28 6.42 14.28 14.34m0 0c0 7.92 6.4 14.34 14.28 14.34 7.88 0 14.27-6.42 14.27-14.34" stroke="#5e5e5e" stroke-width="3" fill="none"/><path d="M265.02 212.24h57.1v28.68h-57.1z" fill="none"/><path d="M265.02 226.58c0-7.92 6.4-14.34 14.28-14.34 7.88 0 14.28 6.42 14.28 14.34m0 0c0 7.92 6.4 14.34 14.27 14.34 7.9 0 14.28-6.42 14.28-14.34" stroke="#5e5e5e" stroke-width="3" fill="none"/><path d="M293.58 212.24h57.1v28.68h-57.1z" fill="none"/><path d="M293.58 226.58c0-7.92 6.4-14.34 14.27-14.34 7.9 0 14.28 6.42 14.28 14.34m0 0c0 7.92 6.4 14.34 14.28 14.34 7.9 0 14.3-6.42 14.3-14.34" stroke="#5e5e5e" stroke-width="3" fill="none"/><path d="M265.02 240.92h57.1v28.7h-57.1z" fill="none"/><path d="M265.02 255.26c0-7.92 6.4-14.34 14.28-14.34 7.88 0 14.28 6.42 14.28 14.34m0 0c0 7.93 6.4 14.35 14.27 14.35 7.9 0 14.28-6.4 14.28-14.34" stroke="#5e5e5e" stroke-width="3" fill="none"/><path d="M279.3 255.26h57.1v28.7h-57.1z" fill="none"/><path d="M279.3 269.6c0-7.9 6.4-14.34 14.28-14.34 7.88 0 14.27 6.43 14.27 14.35m0 0c0 7.93 6.4 14.35 14.28 14.35 7.9 0 14.28-6.42 14.28-14.34" stroke="#5e5e5e" stroke-width="3" fill="none"/><path d="M293.58 226.58h57.1v28.68h-57.1z" fill="none"/><path d="M293.58 240.92c0-7.92 6.4-14.34 14.27-14.34 7.9 0 14.28 6.42 14.28 14.34m0 0c0 7.92 6.4 14.34 14.28 14.34 7.9 0 14.3-6.42 14.3-14.34" stroke="#5e5e5e" stroke-width="3" fill="none"/><g fill="none"><path d="M336.4 227.6v57.37h-28.55V227.6z"/><path d="M322.13 227.6c7.9 0 14.28 6.42 14.28 14.34s-6.38 14.34-14.27 14.34m0 0c-7.88 0-14.28 6.42-14.28 14.34 0 7.93 6.4 14.35 14.28 14.35" stroke="#5e5e5e" stroke-width="3"/></g><g fill="none"><path d="M279.3 197.9v57.36h-28.56V197.9z"/><path d="M265.02 197.9c7.9 0 14.28 6.4 14.28 14.34 0 7.92-6.4 14.34-14.28 14.34m0 0c-7.88 0-14.28 6.42-14.28 14.34s6.4 14.34 14.28 14.34" stroke="#5e5e5e" stroke-width="3"/></g><g fill="none"><path d="M307.85 197.9v57.36H279.3V197.9z"/><path d="M293.58 197.9c7.88 0 14.27 6.4 14.27 14.34 0 7.92-6.4 14.34-14.27 14.34m0 0c-7.9 0-14.28 6.42-14.28 14.34s6.4 14.34 14.28 14.34" stroke="#5e5e5e" stroke-width="3"/></g><g fill="none"><path d="M293.58 226.58v57.37h-28.56v-57.37z"/><path d="M279.3 226.58c7.88 0 14.28 6.42 14.28 14.34s-6.4 14.34-14.28 14.34m0 0c-7.9 0-14.28 6.43-14.28 14.35 0 7.93 6.4 14.35 14.28 14.35" stroke="#5e5e5e" stroke-width="3"/></g><g fill="none"><path d="M279.3 220.42v57.38h-28.56v-57.38z"/><path d="M265.02 220.42c7.9 0 14.28 6.42 14.28 14.35 0 7.92-6.4 14.34-14.28 14.34m0 0c-7.88 0-14.28 6.43-14.28 14.35s6.4 14.35 14.28 14.35" stroke="#5e5e5e" stroke-width="3"/></g><g fill="none"><path d="M336.4 197.9v57.36h-28.55V197.9z"/><path d="M322.13 197.9c7.9 0 14.28 6.4 14.28 14.34 0 7.92-6.38 14.34-14.27 14.34m0 0c-7.88 0-14.28 6.42-14.28 14.34s6.4 14.34 14.28 14.34" stroke="#5e5e5e" stroke-width="3"/></g><g fill="none"><path d="M307.85 227.6v57.37H279.3V227.6z"/><path d="M293.58 227.6c7.88 0 14.27 6.42 14.27 14.34s-6.4 14.34-14.27 14.34m0 0c-7.9 0-14.28 6.42-14.28 14.34 0 7.93 6.4 14.35 14.28 14.35" stroke="#5e5e5e" stroke-width="3"/></g><g fill="none"><path d="M350.7 226.58v57.37h-28.57v-57.37z"/><path d="M336.4 226.58c7.9 0 14.3 6.42 14.3 14.34s-6.4 14.34-14.3 14.34m0 0c-7.88 0-14.27 6.43-14.27 14.35 0 7.93 6.4 14.35 14.28 14.35" stroke="#5e5e5e" stroke-width="3"/></g><path d="M279.3 197.9h57.1v28.68h-57.1z" fill="none"/><path d="M279.3 212.24c0-7.93 6.4-14.35 14.28-14.35 7.88 0 14.27 6.4 14.27 14.34m0 0c0 7.92 6.4 14.34 14.28 14.34 7.9 0 14.28-6.42 14.28-14.34" stroke="#5e5e5e" stroke-width="3" fill="none"/><path d="M250.74 249.1h57.1v28.7h-57.1z" fill="none"/><path d="M250.74 263.45c0-7.92 6.4-14.34 14.28-14.34 7.9 0 14.28 6.43 14.28 14.35m0 0c0 7.92 6.4 14.35 14.28 14.35 7.88 0 14.27-6.43 14.27-14.35" stroke="#5e5e5e" stroke-width="3" fill="none"/><path d="M265.02 269.63l10.12 10.12-10.12 10.12-10.12-10.12z" stroke="#5e5e5e" stroke-width="3"/><path d="M275.12 277.82l10.12 10.12-10.12 10.12L265 287.94zM295.3 270.65l10.13 10.12-10.12 10.1-10.1-10.1zM312.04 278.03l10.12 10.12-10.12 10.12-10.12-10.12z" stroke="#5e5e5e" stroke-width="3"/><path d="M317.95 264.7l10.12 10.12-10.12 10.12-10.12-10.12zM332.23 278.03l10.12 10.12-10.12 10.12-10.12-10.12zM340.6 264.7l10.1 10.12-10.1 10.12-10.13-10.12z" stroke="#5e5e5e" stroke-width="3"/><path d="M300.74 161.43v14.34" stroke="#5e5e5e" stroke-width="3" fill="none"/><path d="M300.74 145.66l4.63 14.27h-9.27zM300.74 191.54l-4.64-14.27h9.27z" stroke="#5e5e5e" stroke-width="3" fill="#5e5e5e"/></g></svg>