<svg xmlns="http://www.w3.org/2000/svg" xmlns:xlink="http://www.w3.org/1999/xlink" xmlns:lucid="lucid" width="240" height="416"><g transform="translate(-480 -304)" lucid:page-tab-id="0_0"><path d="M0 0h1870.87v1322.83H0z" fill="#fff"/><path d="M500 640h200v60H500z" stroke="#5e5e5e" stroke-width="3" fill="#5e5e5e"/><use xlink:href="#a" transform="matrix(1,0,0,1,505,645) translate(62.90123456790125 38.68055555555554)"/><path d="M500 420c0-11.05 8.95-20 20-20h160c11.05 0 20 8.95 20 20v160c0 11.05-8.95 20-20 20H520c-11.05 0-20-8.95-20-20z" stroke="#5e5e5e" stroke-width="3" fill="#fff"/><path d="M500 580h200v20H500z" stroke="#5e5e5e" stroke-width="3" fill="#fff"/><path d="M501.25 579.5c0-.7.56-1.25 1.25-1.25h195c.7 0 1.25.56 1.25 1.25 0 .7-.56 1.25-1.25 1.25h-195c-.7 0-1.25-.56-1.25-1.25z" stroke="#fff" stroke-width="2.5" fill="none"/><path d="M543 341.5v48.82M537 341.5v48.82M543 341.54V340M537 341.54V340M529.82 378.34l10.18 17.2 10.18-17.2M657 397v-48.82M663 397v-48.82" stroke="#5e5e5e" stroke-width="3" fill="none"/><path d="M658.5 398.5h-3v-1.54h3M664.5 398.5h-3v-1.54h3" fill="#5e5e5e"/><path d="M670.18 360.16L660 342.96l-10.18 17.2" stroke="#5e5e5e" stroke-width="3" fill="none"/><path d="M560 602.5V620" stroke="#5e5e5e" stroke-width="2" fill="none"/><path d="M561 602.53h-2v-1.03h2" fill="#5e5e5e"/><path d="M560 635.26L555.36 621h9.28z" stroke="#5e5e5e" stroke-width="2" fill="#5e5e5e"/><path d="M640 602.5V620" stroke="#5e5e5e" stroke-width="2" fill="none"/><path d="M641 602.53h-2v-1.03h2" fill="#5e5e5e"/><path d="M640 635.26L635.36 621h9.28z" stroke="#5e5e5e" stroke-width="2" fill="#5e5e5e"/><path d="M540.65 399.44c0 .55-.45 1-1 1-.56 0-1-.45-1-1s.44-1 1-1c.55 0 1 .45 1 1zm-1.42 3.75c0 .54-.45 1-1 1s-1-.46-1-1c0-.56.45-1 1-1s1 .44 1 1zm-1.42 3.74c0 .55-.44 1-1 1-.54 0-1-.45-1-1s.46-1 1-1c.56 0 1 .45 1 1zm-1.4 3.75c0 .55-.45 1-1 1-.56 0-1-.45-1-1 0-.56.44-1 1-1 .55 0 1 .44 1 1zm-1.42 3.75c0 .55-.45 1-1 1-.56 0-1-.45-1-1 0-.56.44-1 1-1 .55 0 1 .44 1 1zm-1.42 3.75c0 .55-.45 1-1 1s-1-.45-1-1c0-.56.45-1 1-1s1 .44 1 1zm-1.38 3.76c0 .55-.45 1-1 1-.56 0-1-.45-1-1s.44-1 1-1c.55 0 1 .45 1 1zm-1.26 3.8c0 .56-.45 1-1 1s-1-.44-1-1c0-.54.45-1 1-1s1 .46 1 1zm-1.26 3.82c0 .55-.45 1-1 1s-1-.45-1-1 .45-1 1-1 1 .45 1 1zm-1.26 3.8c0 .56-.44 1-1 1-.55 0-1-.44-1-1 0-.55.45-1 1-1 .56 0 1 .45 1 1zm-1.22 3.83c0 .56-.45 1-1 1s-1-.44-1-1c0-.55.45-1 1-1s1 .45 1 1zm-1.1 3.86c0 .56-.44 1-1 1-.55 0-1-.44-1-1 0-.55.45-1 1-1 .56 0 1 .45 1 1zm-1.1 3.86c0 .55-.44 1-1 1-.54 0-1-.45-1-1s.46-1 1-1c.56 0 1 .45 1 1zm-1.04 3.87c0 .54-.45 1-1 1-.56 0-1-.46-1-1 0-.56.44-1 1-1 .55 0 1 .44 1 1zm-.94 3.9c0 .54-.44 1-1 1-.55 0-1-.46-1-1 0-.56.45-1 1-1 .56 0 1 .44 1 1zm-.93 3.9c0 .54-.45 1-1 1s-1-.46-1-1c0-.56.45-1 1-1s1 .44 1 1zm-.78 3.93c0 .55-.46 1-1 1-.56 0-1-.45-1-1 0-.56.44-1 1-1 .54 0 1 .44 1 1zm-.77 3.93c0 .55-.45 1-1 1-.56 0-1-.45-1-1s.44-1 1-1c.55 0 1 .45 1 1zm-.6 3.97c0 .55-.45 1-1 1-.56 0-1-.45-1-1 0-.56.44-1 1-1 .55 0 1 .44 1 1zm-.55 3.97c0 .55-.45 1-1 1s-1-.45-1-1 .45-1 1-1 1 .45 1 1zm-.43 4c0 .54-.45 1-1 1-.56 0-1-.46-1-1 0-.57.44-1 1-1 .55 0 1 .43 1 1zm-.3 4c0 .54-.44 1-1 1-.54 0-1-.46-1-1 0-.57.46-1 1-1 .56 0 1 .43 1 1zm-.16 4c0 .55-.45 1-1 1-.56 0-1-.45-1-1 0-.56.44-1 1-1 .55 0 1 .44 1 1zm-.05 4c0 .56-.44 1-1 1-.55 0-1-.44-1-1 0-.55.45-1 1-1 .56 0 1 .45 1 1zm.1 4c0 .56-.44 1-1 1-.54 0-1-.44-1-1 0-.54.46-1 1-1 .56 0 1 .46 1 1zm.27 4c0 .57-.45 1-1 1-.56 0-1-.43-1-1 0-.54.44-1 1-1 .55 0 1 .46 1 1zm.4 4c0 .56-.44 1-1 1-.55 0-1-.44-1-1 0-.55.45-1 1-1 .56 0 1 .45 1 1zm.58 3.97c0 .55-.45 1-1 1-.56 0-1-.45-1-1s.44-1 1-1c.55 0 1 .45 1 1zm.73 3.95c0 .55-.45 1-1 1-.56 0-1-.45-1-1 0-.56.44-1 1-1 .55 0 1 .44 1 1zm.87 3.9c0 .56-.45 1-1 1s-1-.44-1-1c0-.54.45-1 1-1s1 .46 1 1zm1.02 3.9c0 .54-.45 1-1 1-.56 0-1-.46-1-1 0-.56.44-1 1-1 .55 0 1 .44 1 1zm1.13 3.83c0 .56-.44 1-1 1-.55 0-1-.44-1-1 0-.55.45-1 1-1 .56 0 1 .45 1 1zm1.24 3.82c0 .55-.46 1-1 1-.56 0-1-.45-1-1s.44-1 1-1c.54 0 1 .45 1 1zm1.38 3.76c0 .55-.45 1-1 1s-1-.45-1-1 .45-1 1-1 1 .45 1 1zm1.46 3.74c0 .55-.45 1-1 1s-1-.45-1-1c0-.56.45-1 1-1s1 .44 1 1zm1.54 3.7c0 .55-.44 1-1 1-.55 0-1-.45-1-1 0-.56.45-1 1-1 .56 0 1 .44 1 1zm1.62 3.67c0 .55-.45 1-1 1-.56 0-1-.45-1-1s.44-1 1-1c.55 0 1 .45 1 1zm1.7 3.63c0 .55-.45 1-1 1s-1-.45-1-1 .45-1 1-1 1 .45 1 1zm1.7 3.63c0 .55-.45 1-1 1s-1-.45-1-1 .45-1 1-1 1 .45 1 1zm1.76 3.6c0 .56-.45 1-1 1s-1-.44-1-1c0-.55.45-1 1-1s1 .45 1 1zm1.85 3.56c0 .55-.44 1-1 1-.54 0-1-.45-1-1s.46-1 1-1c.56 0 1 .45 1 1zm1.86 3.56c0 .55-.45 1-1 1s-1-.45-1-1 .45-1 1-1 1 .45 1 1zm1.85 3.56c0 .55-.44 1-1 1-.54 0-1-.45-1-1s.46-1 1-1c.56 0 1 .45 1 1zm1.86 3.56c0 .55-.45 1-1 1s-1-.45-1-1c0-.56.45-1 1-1s1 .44 1 1zm1.85 3.55c0 .55-.44 1-1 1-.54 0-1-.45-1-1 0-.56.46-1 1-1 .56 0 1 .44 1 1zm1.86 3.55c0 .55-.45 1-1 1s-1-.45-1-1 .45-1 1-1 1 .45 1 1zm1.85 3.56c0 .56-.44 1-1 1-.54 0-1-.44-1-1 0-.54.46-1 1-1 .56 0 1 .46 1 1zm1.86 3.57c0 .55-.45 1-1 1s-1-.45-1-1 .45-1 1-1 1 .45 1 1zm1.85 3.56c0 .55-.43 1-1 1-.54 0-1-.45-1-1 0-.56.46-1 1-1 .57 0 1 .44 1 1zm1.86 3.56c0 .54-.44 1-1 1-.55 0-1-.46-1-1 0-.57.45-1 1-1 .56 0 1 .43 1 1z" fill="#5e5e5e"/><path d="M540.57 399.82l-1.87-.7.23-.62h2.14" fill="#5e5e5e"/><path d="M560.5 598.63l-10.7-10.52 8.24-4.27z" stroke="#5e5e5e" stroke-width="2" fill="#fff"/><path d="M641.48 600.62c0 .55-.44 1-1 1-.55 0-1-.45-1-1s.45-1 1-1c.56 0 1 .45 1 1zm1.9-3.47c0 .55-.44 1-1 1-.54 0-1-.45-1-1s.46-1 1-1c.56 0 1 .45 1 1zm1.92-3.47c0 .55-.45 1-1 1s-1-.45-1-1 .45-1 1-1 1 .45 1 1zm1.9-3.47c0 .56-.44 1-1 1-.55 0-1-.44-1-1 0-.55.45-1 1-1 .56 0 1 .45 1 1zm1.92-3.46c0 .55-.45 1-1 1-.56 0-1-.45-1-1 0-.56.44-1 1-1 .55 0 1 .44 1 1zm1.9-3.48c0 .56-.44 1-1 1-.55 0-1-.44-1-1 0-.55.45-1 1-1 .56 0 1 .45 1 1zm1.9-3.47c0 .55-.44 1-1 1-.54 0-1-.45-1-1 0-.56.46-1 1-1 .56 0 1 .44 1 1zm1.92-3.48c0 .55-.45 1-1 1s-1-.45-1-1 .45-1 1-1 1 .45 1 1zm1.9-3.47c0 .55-.44 1-1 1-.55 0-1-.45-1-1s.45-1 1-1c.56 0 1 .45 1 1zm1.9-3.47c0 .55-.43 1-1 1-.54 0-1-.45-1-1s.46-1 1-1c.57 0 1 .45 1 1zm1.92-3.47c0 .56-.45 1-1 1s-1-.44-1-1c0-.54.45-1 1-1s1 .46 1 1zm1.9-3.46c0 .55-.44 1-1 1-.54 0-1-.45-1-1 0-.56.46-1 1-1 .56 0 1 .44 1 1zm1.92-3.47c0 .55-.45 1-1 1s-1-.45-1-1c0-.56.45-1 1-1s1 .44 1 1zm1.9-3.48c0 .55-.44 1-1 1-.55 0-1-.45-1-1 0-.56.45-1 1-1 .56 0 1 .44 1 1zm1.9-3.48c0 .56-.43 1-1 1-.54 0-1-.44-1-1 0-.55.46-1 1-1 .57 0 1 .45 1 1zm1.92-3.47c0 .55-.45 1-1 1s-1-.45-1-1 .45-1 1-1 1 .45 1 1zm1.9-3.47c0 .55-.44 1-1 1-.54 0-1-.45-1-1s.46-1 1-1c.56 0 1 .45 1 1zm1.92-3.47c0 .56-.45 1-1 1s-1-.44-1-1c0-.54.45-1 1-1s1 .46 1 1zm1.9-3.46c0 .55-.44 1-1 1-.55 0-1-.45-1-1s.45-1 1-1c.56 0 1 .45 1 1zm1.83-3.52c0 .56-.45 1-1 1s-1-.44-1-1c0-.55.45-1 1-1s1 .45 1 1zm1.68-3.58c0 .55-.45 1-1 1-.56 0-1-.45-1-1 0-.56.44-1 1-1 .55 0 1 .44 1 1zm1.6-3.62c0 .55-.45 1-1 1s-1-.45-1-1c0-.56.45-1 1-1s1 .44 1 1zm1.5-3.67c0 .56-.44 1-1 1-.54 0-1-.44-1-1 0-.55.46-1 1-1 .56 0 1 .45 1 1zm1.38-3.7c0 .54-.44 1-1 1-.55 0-1-.46-1-1 0-.57.45-1 1-1 .56 0 1 .43 1 1zm1.2-3.8c0 .56-.44 1-1 1-.55 0-1-.44-1-1 0-.54.45-1 1-1 .56 0 1 .46 1 1zm1-3.82c0 .55-.43 1-1 1-.54 0-1-.45-1-1s.46-1 1-1c.57 0 1 .45 1 1zm.83-3.88c0 .56-.45 1-1 1-.56 0-1-.44-1-1 0-.55.44-1 1-1 .55 0 1 .45 1 1zm.6-3.9c0 .54-.45 1-1 1-.56 0-1-.46-1-1 0-.56.44-1 1-1 .55 0 1 .44 1 1zm.34-3.96c0 .55-.44 1-1 1-.55 0-1-.45-1-1 0-.56.45-1 1-1 .56 0 1 .44 1 1zm.14-3.96c0 .55-.44 1-1 1-.54 0-1-.45-1-1 0-.56.46-1 1-1 .56 0 1 .44 1 1zm-.05-3.96c0 .55-.45 1-1 1s-1-.45-1-1c0-.56.45-1 1-1s1 .44 1 1zm-.26-3.96c0 .56-.46 1-1 1-.56 0-1-.44-1-1 0-.55.44-1 1-1 .54 0 1 .45 1 1zm-.44-3.93c0 .54-.45 1-1 1s-1-.46-1-1c0-.57.45-1 1-1s1 .43 1 1zm-.58-3.93c0 .55-.45 1-1 1s-1-.45-1-1 .45-1 1-1 1 .45 1 1zm-.7-3.9c0 .55-.44 1-1 1-.54 0-1-.45-1-1s.46-1 1-1c.56 0 1 .45 1 1zm-.76-3.9c0 .57-.44 1-1 1-.55 0-1-.43-1-1 0-.54.45-1 1-1 .56 0 1 .46 1 1zm-.9-3.85c0 .56-.43 1-1 1-.54 0-1-.44-1-1 0-.55.46-1 1-1 .57 0 1 .45 1 1zm-.92-3.85c0 .56-.44 1-1 1-.55 0-1-.44-1-1 0-.55.45-1 1-1 .56 0 1 .45 1 1zm-.94-3.84c0 .55-.45 1-1 1s-1-.45-1-1 .45-1 1-1 1 .45 1 1zm-1.1-3.8c0 .54-.45 1-1 1s-1-.46-1-1c0-.56.45-1 1-1s1 .44 1 1zm-1.1-3.8c0 .54-.45 1-1 1s-1-.46-1-1c0-.57.45-1 1-1s1 .43 1 1zm-1.1-3.82c0 .56-.44 1-1 1-.55 0-1-.44-1-1 0-.54.45-1 1-1 .56 0 1 .46 1 1zm-1.1-3.8c0 .56-.44 1-1 1-.55 0-1-.44-1-1 0-.55.45-1 1-1 .56 0 1 .45 1 1zm-1.1-3.8c0 .55-.44 1-1 1-.55 0-1-.45-1-1s.45-1 1-1c.56 0 1 .45 1 1zm-1.1-3.8c0 .55-.45 1-1 1s-1-.45-1-1c0-.56.45-1 1-1s1 .44 1 1zm-1.2-3.78c0 .55-.44 1-1 1-.55 0-1-.45-1-1s.45-1 1-1c.56 0 1 .45 1 1zm-1.2-3.78c0 .56-.44 1-1 1-.54 0-1-.44-1-1 0-.55.46-1 1-1 .56 0 1 .45 1 1zm-1.2-3.77c0 .55-.43 1-1 1-.54 0-1-.45-1-1 0-.56.46-1 1-1 .57 0 1 .44 1 1zM671 423.7c0 .54-.45 1-1 1s-1-.46-1-1c0-.56.45-1 1-1s1 .44 1 1zm-1.2-3.8c0 .57-.45 1-1 1s-1-.43-1-1c0-.54.45-1 1-1s1 .46 1 1zm-1.2-3.76c0 .55-.44 1-1 1-.55 0-1-.45-1-1s.45-1 1-1c.56 0 1 .45 1 1z" fill="#5e5e5e"/><path d="M641.37 601.08l-.23.42h-2.28l.76-1.38" fill="#5e5e5e"/><path d="M662.98 401.6l8.72 12.2-8.83 2.78z" stroke="#5e5e5e" stroke-width="2" fill="#fff"/><path d="M561.4 600.58c0 .56-.44 1-1 1-.55 0-1-.44-1-1 0-.55.45-1 1-1 .56 0 1 .45 1 1zm1.65-3.72c0 .55-.45 1-1 1s-1-.45-1-1 .45-1 1-1 1 .45 1 1zm1.64-3.72c0 .55-.46 1-1 1-.56 0-1-.45-1-1s.44-1 1-1c.54 0 1 .45 1 1zm1.72-3.68c0 .55-.45 1-1 1s-1-.45-1-1 .45-1 1-1 1 .45 1 1zm1.87-3.6c0 .54-.45 1-1 1-.56 0-1-.46-1-1 0-.56.44-1 1-1 .55 0 1 .44 1 1zm1.92-3.6c0 .56-.45 1-1 1-.56 0-1-.44-1-1 0-.55.44-1 1-1 .55 0 1 .45 1 1zm2.1-3.48c0 .55-.45 1-1 1-.56 0-1-.45-1-1s.44-1 1-1c.55 0 1 .45 1 1zm2.2-3.4c0 .55-.43 1-1 1-.54 0-1-.45-1-1 0-.56.46-1 1-1 .57 0 1 .44 1 1zm2.38-3.3c0 .54-.44 1-1 1-.55 0-1-.46-1-1 0-.56.45-1 1-1 .56 0 1 .44 1 1zm2.57-3.17c0 .57-.45 1-1 1s-1-.43-1-1c0-.54.45-1 1-1s1 .46 1 1zm2.78-2.95c0 .55-.45 1-1 1s-1-.45-1-1 .45-1 1-1 1 .45 1 1zm3.02-2.73c0 .56-.45 1-1 1-.56 0-1-.44-1-1 0-.55.44-1 1-1 .55 0 1 .45 1 1zm3.3-2.37c0 .56-.45 1-1 1s-1-.44-1-1c0-.55.45-1 1-1s1 .45 1 1zm3.6-1.87c0 .55-.44 1-1 1-.55 0-1-.45-1-1 0-.56.45-1 1-1 .56 0 1 .44 1 1zm3.87-1.26c0 .56-.45 1-1 1-.56 0-1-.44-1-1 0-.55.44-1 1-1 .55 0 1 .45 1 1zm4.03-.46c0 .55-.45 1-1 1s-1-.45-1-1c0-.56.45-1 1-1s1 .44 1 1zm4.04.38c0 .55-.44 1-1 1-.54 0-1-.45-1-1s.46-1 1-1c.56 0 1 .45 1 1zm3.9 1.17c0 .56-.45 1-1 1s-1-.44-1-1c0-.54.45-1 1-1s1 .46 1 1zm3.64 1.82c0 .55-.45 1-1 1s-1-.45-1-1 .45-1 1-1 1 .45 1 1zm3.36 2.28c0 .55-.45 1-1 1s-1-.45-1-1 .45-1 1-1 1 .45 1 1zm3.1 2.62c0 .55-.43 1-1 1-.54 0-1-.45-1-1s.46-1 1-1c.57 0 1 .45 1 1zm2.88 2.9c0 .54-.45 1-1 1-.56 0-1-.46-1-1 0-.56.44-1 1-1 .55 0 1 .44 1 1zm2.66 3.06c0 .56-.45 1-1 1-.56 0-1-.44-1-1 0-.55.44-1 1-1 .55 0 1 .45 1 1zm2.5 3.22c0 .55-.46 1-1 1-.56 0-1-.45-1-1 0-.56.44-1 1-1 .54 0 1 .44 1 1zm2.3 3.35c0 .56-.46 1-1 1-.56 0-1-.44-1-1 0-.55.44-1 1-1 .54 0 1 .45 1 1zm2.18 3.43c0 .55-.44 1-1 1-.55 0-1-.45-1-1 0-.56.45-1 1-1 .56 0 1 .44 1 1zm2.08 3.5c0 .55-.45 1-1 1s-1-.45-1-1c0-.56.45-1 1-1s1 .44 1 1z" fill="#5e5e5e"/><path d="M561.33 600.96l-.24.54h-2.2l.6-1.34" fill="#5e5e5e"/><path d="M638.55 598.6L628 587.95l8.28-4.16z" stroke="#5e5e5e" stroke-width="2" fill="#fff"/><path d="M550 480.33c0-3.3 2.7-6 6-6h88c3.3 0 6 2.7 6 6V513c0 3.3-2.7 6-6 6h-88c-3.3 0-6-2.7-6-6z" stroke="#000" stroke-opacity="0" stroke-width="2" fill="#fff" fill-opacity="0"/><use xlink:href="#b" transform="matrix(1,0,0,1,555,479.3333333333333) translate(-5.475308641975303 23.27777777777778)"/><path d="M532 366.5c0 5.52-4.48 10-10 10s-10-4.48-10-10 4.48-10 10-10 10 4.48 10 10z" stroke="#5e5e5e" fill="#fff"/><use xlink:href="#c" transform="matrix(1,0,0,1,517,361.5) translate(0.6790123456790136 12.444444444444441)"/><path d="M543.2 460.75c0 5.52-4.48 10-10 10s-10-4.48-10-10 4.48-10 10-10 10 4.48 10 10z" stroke="#5e5e5e" fill="#fff"/><use xlink:href="#d" transform="matrix(1,0,0,1,528.2,455.75) translate(0.6790123456790136 12.444444444444441)"/><path d="M550 620c0 5.52-4.48 10-10 10s-10-4.48-10-10 4.48-10 10-10 10 4.48 10 10z" stroke="#5e5e5e" fill="#fff"/><use xlink:href="#e" transform="matrix(1,0,0,1,535,615) translate(0.6790123456790136 12.444444444444441)"/><path d="M610 539c0 5.52-4.48 10-10 10s-10-4.48-10-10 4.48-10 10-10 10 4.48 10 10z" stroke="#5e5e5e" fill="#fff"/><use xlink:href="#f" transform="matrix(1,0,0,1,595,534) translate(0.6790123456790136 12.444444444444441)"/><path d="M668.4 620c0 5.52-4.48 10-10 10s-10-4.48-10-10 4.48-10 10-10 10 4.48 10 10z" stroke="#5e5e5e" fill="#fff"/><use xlink:href="#g" transform="matrix(1,0,0,1,653.4,615) translate(0.6790123456790136 12.444444444444441)"/><path d="M676.8 459.95c0 5.52-4.48 10-10 10s-10-4.48-10-10 4.48-10 10-10 10 4.48 10 10z" stroke="#5e5e5e" fill="#fff"/><use xlink:href="#h" transform="matrix(1,0,0,1,661.8000000000001,454.95) translate(0.6790123456790136 12.444444444444441)"/><path d="M688.4 370c0 5.52-4.48 10-10 10s-10-4.48-10-10 4.48-10 10-10 10 4.48 10 10z" stroke="#5e5e5e" fill="#fff"/><use xlink:href="#i" transform="matrix(1,0,0,1,673.4,365) translate(0.6790123456790136 12.444444444444441)"/><defs><path fill="#fff" d="M140-251c81 0 123 46 123 126C263-46 219 4 140 4 59 4 17-45 17-125s42-126 123-126zm0 227c63 0 89-41 89-101s-29-99-89-99c-61 0-89 39-89 99S79-25 140-24" id="j"/><path fill="#fff" d="M185-189c-5-48-123-54-124 2 14 75 158 14 163 119 3 78-121 87-175 55-17-10-28-26-33-46l33-7c5 56 141 63 141-1 0-78-155-14-162-118-5-82 145-84 179-34 5 7 8 16 11 25" id="k"/><g id="a"><use transform="matrix(0.12345679012345674,0,0,0.12345679012345674,0,0)" xlink:href="#j"/><use transform="matrix(0.12345679012345674,0,0,0.12345679012345674,34.567901234567884,0)" xlink:href="#k"/></g><path fill="#333" d="M233-177c-1 41-23 64-60 70L243 0h-38l-65-103H63V0H30v-248c88 3 205-21 203 71zM63-129c60-2 137 13 137-47 0-61-80-42-137-45v92" id="l"/><path fill="#333" d="M100-194c63 0 86 42 84 106H49c0 40 14 67 53 68 26 1 43-12 49-29l28 8c-11 28-37 45-77 45C44 4 14-33 15-96c1-61 26-98 85-98zm52 81c6-60-76-77-97-28-3 7-6 17-6 28h103" id="m"/><path fill="#333" d="M141-36C126-15 110 5 73 4 37 3 15-17 15-53c-1-64 63-63 125-63 3-35-9-54-41-54-24 1-41 7-42 31l-33-3c5-37 33-52 76-52 45 0 72 20 72 64v82c-1 20 7 32 28 27v20c-31 9-61-2-59-35zM48-53c0 20 12 33 32 33 41-3 63-29 60-74-43 2-92-5-92 41" id="n"/><path fill="#333" d="M96-169c-40 0-48 33-48 73s9 75 48 75c24 0 41-14 43-38l32 2c-6 37-31 61-74 61-59 0-76-41-82-99-10-93 101-131 147-64 4 7 5 14 7 22l-32 3c-4-21-16-35-41-35" id="o"/><path fill="#333" d="M59-47c-2 24 18 29 38 22v24C64 9 27 4 27-40v-127H5v-23h24l9-43h21v43h35v23H59v120" id="p"/><path fill="#333" d="M100-194c62-1 85 37 85 99 1 63-27 99-86 99S16-35 15-95c0-66 28-99 85-99zM99-20c44 1 53-31 53-75 0-43-8-75-51-75s-53 32-53 75 10 74 51 75" id="q"/><path fill="#333" d="M114-163C36-179 61-72 57 0H25l-1-190h30c1 12-1 29 2 39 6-27 23-49 58-41v29" id="r"/><g id="b"><use transform="matrix(0.08024691358024691,0,0,0.08024691358024691,0,0)" xlink:href="#l"/><use transform="matrix(0.08024691358024691,0,0,0.08024691358024691,20.78395061728395,0)" xlink:href="#m"/><use transform="matrix(0.08024691358024691,0,0,0.08024691358024691,36.83333333333333,0)" xlink:href="#n"/><use transform="matrix(0.08024691358024691,0,0,0.08024691358024691,52.8827160493827,0)" xlink:href="#o"/><use transform="matrix(0.08024691358024691,0,0,0.08024691358024691,67.32716049382715,0)" xlink:href="#p"/><use transform="matrix(0.08024691358024691,0,0,0.08024691358024691,75.35185185185185,0)" xlink:href="#q"/><use transform="matrix(0.08024691358024691,0,0,0.08024691358024691,91.40123456790123,0)" xlink:href="#r"/></g><path fill="#333" d="M101-251c68 0 85 55 85 127S166 4 100 4C33 4 14-52 14-124c0-73 17-127 87-127zm-1 229c47 0 54-49 54-102s-4-102-53-102c-51 0-55 48-55 102 0 53 5 102 54 102" id="s"/><use transform="matrix(0.04320987654320986,0,0,0.04320987654320986,0,0)" xlink:href="#s" id="c"/><path fill="#333" d="M27 0v-27h64v-190l-56 39v-29l58-41h29v221h61V0H27" id="t"/><use transform="matrix(0.04320987654320986,0,0,0.04320987654320986,0,0)" xlink:href="#t" id="d"/><path fill="#333" d="M101-251c82-7 93 87 43 132L82-64C71-53 59-42 53-27h129V0H18c2-99 128-94 128-182 0-28-16-43-45-43s-46 15-49 41l-32-3c6-41 34-60 81-64" id="u"/><use transform="matrix(0.04320987654320986,0,0,0.04320987654320986,0,0)" xlink:href="#u" id="e"/><path fill="#333" d="M126-127c33 6 58 20 58 59 0 88-139 92-164 29-3-8-5-16-6-25l32-3c6 27 21 44 54 44 32 0 52-15 52-46 0-38-36-46-79-43v-28c39 1 72-4 72-42 0-27-17-43-46-43-28 0-47 15-49 41l-32-3c6-42 35-63 81-64 48-1 79 21 79 65 0 36-21 52-52 59" id="v"/><use transform="matrix(0.04320987654320986,0,0,0.04320987654320986,0,0)" xlink:href="#v" id="f"/><path fill="#333" d="M155-56V0h-30v-56H8v-25l114-167h33v167h35v25h-35zm-30-156c-27 46-58 90-88 131h88v-131" id="w"/><use transform="matrix(0.04320987654320986,0,0,0.04320987654320986,0,0)" xlink:href="#w" id="g"/><path fill="#333" d="M54-142c48-35 137-8 131 61C196 18 31 33 14-55l32-4c7 23 22 37 52 37 35-1 51-22 54-58 4-55-73-65-99-34H22l8-134h141v27H59" id="x"/><use transform="matrix(0.04320987654320986,0,0,0.04320987654320986,0,0)" xlink:href="#x" id="h"/><path fill="#333" d="M110-160c48 1 74 30 74 79 0 53-28 85-80 85-65 0-83-55-86-122-5-90 50-162 133-122 14 7 22 21 27 39l-31 6c-5-40-67-38-82-6-9 19-15 44-15 74 11-20 30-34 60-33zm-7 138c34 0 49-23 49-58s-16-56-50-56c-29 0-50 16-49 49 1 36 15 65 50 65" id="y"/><use transform="matrix(0.04320987654320986,0,0,0.04320987654320986,0,0)" xlink:href="#y" id="i"/></defs></g></svg>